<mxfile host="app.diagrams.net" modified="2021-02-10T13:36:41.608Z" agent="5.0 (Macintosh; Intel Mac OS X 11_2_0) AppleWebKit/537.36 (KHTML, like Gecko) Chrome/88.0.4324.146 Safari/537.36" etag="4_k8SVP543Tt9J1QeJc5" version="14.2.9" type="github">
  <diagram id="LyMEHFj5zkk56CKIuFeT" name="ページ1">
    <mxGraphModel dx="1306" dy="812" grid="1" gridSize="10" guides="1" tooltips="1" connect="1" arrows="1" fold="1" page="1" pageScale="1" pageWidth="827" pageHeight="1169" math="0" shadow="0">
      <root>
        <mxCell id="0" />
        <mxCell id="1" parent="0" />
        <mxCell id="Mw4LVD-Q3dpzNz4cIKU2-1" value="開始" style="strokeWidth=2;html=1;shape=mxgraph.flowchart.start_1;whiteSpace=wrap;" vertex="1" parent="1">
          <mxGeometry x="560" y="60" width="160" height="60" as="geometry" />
        </mxCell>
        <mxCell id="Mw4LVD-Q3dpzNz4cIKU2-2" value="" style="endArrow=classic;html=1;" edge="1" parent="1">
          <mxGeometry width="50" height="50" relative="1" as="geometry">
            <mxPoint x="639.5" y="120" as="sourcePoint" />
            <mxPoint x="640" y="190" as="targetPoint" />
          </mxGeometry>
        </mxCell>
        <mxCell id="Mw4LVD-Q3dpzNz4cIKU2-3" value="INPUT hp" style="shape=parallelogram;html=1;strokeWidth=2;perimeter=parallelogramPerimeter;whiteSpace=wrap;rounded=1;arcSize=12;size=0.23;" vertex="1" parent="1">
          <mxGeometry x="550" y="190" width="170" height="60" as="geometry" />
        </mxCell>
        <mxCell id="Mw4LVD-Q3dpzNz4cIKU2-4" value="" style="endArrow=classic;html=1;" edge="1" parent="1">
          <mxGeometry width="50" height="50" relative="1" as="geometry">
            <mxPoint x="639.5" y="250" as="sourcePoint" />
            <mxPoint x="640" y="310" as="targetPoint" />
          </mxGeometry>
        </mxCell>
        <mxCell id="Mw4LVD-Q3dpzNz4cIKU2-6" value="hp &amp;lt; 30" style="strokeWidth=2;html=1;shape=mxgraph.flowchart.decision;whiteSpace=wrap;" vertex="1" parent="1">
          <mxGeometry x="550" y="310" width="180" height="70" as="geometry" />
        </mxCell>
        <mxCell id="Mw4LVD-Q3dpzNz4cIKU2-7" value="" style="endArrow=classic;html=1;" edge="1" parent="1">
          <mxGeometry width="50" height="50" relative="1" as="geometry">
            <mxPoint x="639.5" y="380" as="sourcePoint" />
            <mxPoint x="640" y="440" as="targetPoint" />
          </mxGeometry>
        </mxCell>
        <mxCell id="Mw4LVD-Q3dpzNz4cIKU2-8" value="" style="verticalLabelPosition=bottom;verticalAlign=top;html=1;shape=process;whiteSpace=wrap;rounded=1;size=0.14;arcSize=6;" vertex="1" parent="1">
          <mxGeometry x="555" y="440" width="170" height="60" as="geometry" />
        </mxCell>
        <mxCell id="Mw4LVD-Q3dpzNz4cIKU2-9" value="result ← 回復する(hp)" style="text;html=1;strokeColor=none;fillColor=none;align=center;verticalAlign=middle;whiteSpace=wrap;rounded=0;" vertex="1" parent="1">
          <mxGeometry x="580" y="460" width="120" height="20" as="geometry" />
        </mxCell>
        <mxCell id="Mw4LVD-Q3dpzNz4cIKU2-10" value="回復する" style="strokeWidth=2;html=1;shape=mxgraph.flowchart.start_1;whiteSpace=wrap;" vertex="1" parent="1">
          <mxGeometry x="1280" y="440" width="160" height="60" as="geometry" />
        </mxCell>
        <mxCell id="Mw4LVD-Q3dpzNz4cIKU2-11" value="" style="endArrow=classic;html=1;" edge="1" parent="1" target="Mw4LVD-Q3dpzNz4cIKU2-12">
          <mxGeometry width="50" height="50" relative="1" as="geometry">
            <mxPoint x="1360" y="500" as="sourcePoint" />
            <mxPoint x="1360.5" y="560" as="targetPoint" />
          </mxGeometry>
        </mxCell>
        <mxCell id="Mw4LVD-Q3dpzNz4cIKU2-12" value="result ← hp + 50" style="rounded=1;whiteSpace=wrap;html=1;absoluteArcSize=1;arcSize=14;strokeWidth=2;" vertex="1" parent="1">
          <mxGeometry x="1270" y="550" width="180" height="40" as="geometry" />
        </mxCell>
        <mxCell id="Mw4LVD-Q3dpzNz4cIKU2-13" value="" style="endArrow=classic;html=1;" edge="1" parent="1">
          <mxGeometry width="50" height="50" relative="1" as="geometry">
            <mxPoint x="1359.5" y="590" as="sourcePoint" />
            <mxPoint x="1359.5" y="640" as="targetPoint" />
          </mxGeometry>
        </mxCell>
        <mxCell id="Mw4LVD-Q3dpzNz4cIKU2-14" value="RTN result" style="strokeWidth=2;html=1;shape=mxgraph.flowchart.start_1;whiteSpace=wrap;" vertex="1" parent="1">
          <mxGeometry x="1280" y="640" width="160" height="60" as="geometry" />
        </mxCell>
        <mxCell id="Mw4LVD-Q3dpzNz4cIKU2-15" value="Yes" style="text;html=1;strokeColor=none;fillColor=none;align=center;verticalAlign=middle;whiteSpace=wrap;rounded=0;" vertex="1" parent="1">
          <mxGeometry x="660" y="380" width="40" height="20" as="geometry" />
        </mxCell>
        <mxCell id="Mw4LVD-Q3dpzNz4cIKU2-16" value="終了" style="strokeWidth=2;html=1;shape=mxgraph.flowchart.start_1;whiteSpace=wrap;" vertex="1" parent="1">
          <mxGeometry x="540" y="910" width="160" height="60" as="geometry" />
        </mxCell>
        <mxCell id="Mw4LVD-Q3dpzNz4cIKU2-17" value="No" style="text;html=1;strokeColor=none;fillColor=none;align=center;verticalAlign=middle;whiteSpace=wrap;rounded=0;" vertex="1" parent="1">
          <mxGeometry x="820" y="350" width="40" height="20" as="geometry" />
        </mxCell>
        <mxCell id="Mw4LVD-Q3dpzNz4cIKU2-18" value="PRINT result" style="shape=parallelogram;html=1;strokeWidth=2;perimeter=parallelogramPerimeter;whiteSpace=wrap;rounded=1;arcSize=12;size=0.23;" vertex="1" parent="1">
          <mxGeometry x="730" y="740" width="160" height="60" as="geometry" />
        </mxCell>
        <mxCell id="Mw4LVD-Q3dpzNz4cIKU2-19" value="変数定義&lt;br&gt;&lt;br&gt;hp: ヒットポイント&lt;br&gt;result: 結果" style="rounded=1;whiteSpace=wrap;html=1;absoluteArcSize=1;arcSize=14;strokeWidth=2;align=left;" vertex="1" parent="1">
          <mxGeometry x="770" y="80" width="180" height="100" as="geometry" />
        </mxCell>
        <mxCell id="Mw4LVD-Q3dpzNz4cIKU2-21" value="" style="endArrow=classic;html=1;" edge="1" parent="1">
          <mxGeometry width="50" height="50" relative="1" as="geometry">
            <mxPoint x="820" y="690" as="sourcePoint" />
            <mxPoint x="820.5" y="740" as="targetPoint" />
            <Array as="points">
              <mxPoint x="820.5" y="740" />
            </Array>
          </mxGeometry>
        </mxCell>
        <mxCell id="Mw4LVD-Q3dpzNz4cIKU2-24" value="" style="endArrow=classic;html=1;exitX=0;exitY=0.5;exitDx=0;exitDy=0;" edge="1" parent="1">
          <mxGeometry width="50" height="50" relative="1" as="geometry">
            <mxPoint x="545" y="470" as="sourcePoint" />
            <mxPoint x="490" y="280" as="targetPoint" />
            <Array as="points">
              <mxPoint x="450" y="470" />
              <mxPoint x="450" y="280" />
            </Array>
          </mxGeometry>
        </mxCell>
        <mxCell id="Mw4LVD-Q3dpzNz4cIKU2-25" value="引数&lt;br&gt;hp: ヒットポイント&lt;br&gt;&lt;br&gt;変数定義&lt;br&gt;result: 結果" style="rounded=1;whiteSpace=wrap;html=1;absoluteArcSize=1;arcSize=14;strokeWidth=2;align=left;" vertex="1" parent="1">
          <mxGeometry x="1440" y="340" width="180" height="100" as="geometry" />
        </mxCell>
        <mxCell id="Mw4LVD-Q3dpzNz4cIKU2-26" value="hp &amp;gt; 100" style="strokeWidth=2;html=1;shape=mxgraph.flowchart.decision;whiteSpace=wrap;" vertex="1" parent="1">
          <mxGeometry x="730" y="500" width="180" height="70" as="geometry" />
        </mxCell>
        <mxCell id="Mw4LVD-Q3dpzNz4cIKU2-27" value="hp ←result" style="rounded=1;whiteSpace=wrap;html=1;absoluteArcSize=1;arcSize=14;strokeWidth=2;" vertex="1" parent="1">
          <mxGeometry x="490" y="260" width="100" height="60" as="geometry" />
        </mxCell>
        <mxCell id="Mw4LVD-Q3dpzNz4cIKU2-31" value="result ← 100" style="shape=parallelogram;html=1;strokeWidth=2;perimeter=parallelogramPerimeter;whiteSpace=wrap;rounded=1;arcSize=12;size=0.23;" vertex="1" parent="1">
          <mxGeometry x="740" y="640" width="160" height="60" as="geometry" />
        </mxCell>
        <mxCell id="Mw4LVD-Q3dpzNz4cIKU2-32" value="" style="endArrow=classic;html=1;entryX=0.5;entryY=0;entryDx=0;entryDy=0;" edge="1" parent="1" target="Mw4LVD-Q3dpzNz4cIKU2-31">
          <mxGeometry width="50" height="50" relative="1" as="geometry">
            <mxPoint x="820" y="570" as="sourcePoint" />
            <mxPoint x="820" y="620" as="targetPoint" />
          </mxGeometry>
        </mxCell>
        <mxCell id="Mw4LVD-Q3dpzNz4cIKU2-33" value="Yes" style="text;html=1;strokeColor=none;fillColor=none;align=center;verticalAlign=middle;whiteSpace=wrap;rounded=0;" vertex="1" parent="1">
          <mxGeometry x="830" y="585" width="40" height="20" as="geometry" />
        </mxCell>
        <mxCell id="Mw4LVD-Q3dpzNz4cIKU2-34" value="" style="endArrow=classic;html=1;entryX=1;entryY=0.5;entryDx=0;entryDy=0;entryPerimeter=0;" edge="1" parent="1" target="Mw4LVD-Q3dpzNz4cIKU2-16">
          <mxGeometry width="50" height="50" relative="1" as="geometry">
            <mxPoint x="810" y="800" as="sourcePoint" />
            <mxPoint x="810" y="770" as="targetPoint" />
            <Array as="points">
              <mxPoint x="810" y="860" />
            </Array>
          </mxGeometry>
        </mxCell>
        <mxCell id="Mw4LVD-Q3dpzNz4cIKU2-35" value="" style="endArrow=classic;html=1;" edge="1" parent="1">
          <mxGeometry width="50" height="50" relative="1" as="geometry">
            <mxPoint x="910" y="530" as="sourcePoint" />
            <mxPoint x="1040" y="630" as="targetPoint" />
            <Array as="points">
              <mxPoint x="1040" y="530" />
            </Array>
          </mxGeometry>
        </mxCell>
        <mxCell id="Mw4LVD-Q3dpzNz4cIKU2-36" value="PRINT hp" style="shape=parallelogram;html=1;strokeWidth=2;perimeter=parallelogramPerimeter;whiteSpace=wrap;rounded=1;arcSize=12;size=0.23;" vertex="1" parent="1">
          <mxGeometry x="950" y="630" width="160" height="60" as="geometry" />
        </mxCell>
        <mxCell id="Mw4LVD-Q3dpzNz4cIKU2-37" value="" style="endArrow=classic;html=1;entryX=1;entryY=0.5;entryDx=0;entryDy=0;entryPerimeter=0;exitX=0.589;exitY=1.038;exitDx=0;exitDy=0;exitPerimeter=0;" edge="1" parent="1" source="Mw4LVD-Q3dpzNz4cIKU2-36" target="Mw4LVD-Q3dpzNz4cIKU2-16">
          <mxGeometry width="50" height="50" relative="1" as="geometry">
            <mxPoint x="1045" y="700" as="sourcePoint" />
            <mxPoint x="950" y="770" as="targetPoint" />
            <Array as="points">
              <mxPoint x="1045" y="770" />
            </Array>
          </mxGeometry>
        </mxCell>
        <mxCell id="Mw4LVD-Q3dpzNz4cIKU2-38" value="No" style="text;html=1;strokeColor=none;fillColor=none;align=center;verticalAlign=middle;whiteSpace=wrap;rounded=0;" vertex="1" parent="1">
          <mxGeometry x="1040" y="525" width="40" height="20" as="geometry" />
        </mxCell>
        <mxCell id="Mw4LVD-Q3dpzNz4cIKU2-44" value="" style="endArrow=classic;html=1;exitX=1;exitY=0.5;exitDx=0;exitDy=0;" edge="1" parent="1" source="Mw4LVD-Q3dpzNz4cIKU2-27">
          <mxGeometry width="50" height="50" relative="1" as="geometry">
            <mxPoint x="649.5" y="260" as="sourcePoint" />
            <mxPoint x="640" y="290" as="targetPoint" />
          </mxGeometry>
        </mxCell>
        <mxCell id="Mw4LVD-Q3dpzNz4cIKU2-45" value="" style="endArrow=classic;html=1;entryX=0.5;entryY=0;entryDx=0;entryDy=0;entryPerimeter=0;" edge="1" parent="1" target="Mw4LVD-Q3dpzNz4cIKU2-26">
          <mxGeometry width="50" height="50" relative="1" as="geometry">
            <mxPoint x="720" y="340" as="sourcePoint" />
            <mxPoint x="850" y="440" as="targetPoint" />
            <Array as="points">
              <mxPoint x="820" y="340" />
            </Array>
          </mxGeometry>
        </mxCell>
      </root>
    </mxGraphModel>
  </diagram>
</mxfile>
